<?xml version="1.0" standalone="no"?><!DOCTYPE svg PUBLIC "-//W3C//DTD SVG 1.1//EN" "http://www.w3.org/Graphics/SVG/1.1/DTD/svg11.dtd"><svg t="1729649556449" class="icon" viewBox="0 0 1024 1024" version="1.1" xmlns="http://www.w3.org/2000/svg" p-id="20411" xmlns:xlink="http://www.w3.org/1999/xlink" width="200" height="200"><path d="M312.7296 371.1488c-29.4912-18.7904-46.0032-47.36-51.328-89.2416-8.192-64.8192 38.5024-98.7136 75.5968-57.6 7.3216 8.0896 13.184 15.7184 18.432 22.528 14.5664 18.9184 24.3712 31.6672 47.1552 31.6672 14.0032 0 27.4944-15.36 42.2912-32.1536 17.9712-20.4288 37.8624-43.0592 62.9248-43.0592 28.3392 0 45.3376 21.5808 61.2096 41.728 14.0288 17.792 27.1616 34.4576 46.4896 34.176 15.0272-0.2048 28.7488-14.0288 43.008-28.416 19.0208-19.1744 39.0144-39.3216 64.384-29.3888 42.3424 16.5376 29.0816 114.6624-41.3696 158.6432 91.5968 71.2192 133.4784 191.616 133.4784 295.4752 0 159.2832-144.9984 240.2816-323.8912 240.2816-178.9184 0-323.9168-80.9984-323.9168-240.2816 0-108.3136 45.568-234.624 145.5616-304.384z" p-id="20412"></path><path d="M286.1056 574.208a35.4304 35.4304 0 0 1-21.2992-45.1072l45.312-126.208a35.4304 35.4304 0 0 1 45.0816-21.2992 35.4304 35.4304 0 0 1 21.2992 45.1072l-45.312 126.208a35.2512 35.2512 0 0 1-45.0816 21.2992z" p-id="20413"></path><path d="M491.1104 437.504c-129.1008 0-238.8224-28.8-238.8224-63.616 0-34.7904 19.1232-47.1808 44.6208-38.5792 25.7024 8.704 83.3792 24.9856 194.2016 24.9856 110.7968 0 163.9936-15.6928 194.176-24.9856 30.208-9.3184 44.6208 0.1792 44.6208 38.5792s-109.696 63.616-238.7968 63.616z" p-id="20414"></path><path d="M896.6912 259.072a54.8352 54.8352 0 1 0-96.4096 52.4032 54.8352 54.8352 0 1 0 96.4096-52.4032z m-56.832 44.6208l-11.4688-21.2224a4.4032 4.4032 0 0 1 1.6896-5.888l21.1968-11.52a4.4032 4.4032 0 0 1 5.888 1.7152l11.52 21.1968a4.4032 4.4032 0 0 1-1.7152 5.888l-21.1968 11.52a4.3264 4.3264 0 0 1-5.888-1.6896zM128.6912 489.472a54.8352 54.8352 0 1 0-96.4096 52.4032 54.8352 54.8352 0 1 0 96.4096-52.4032z m-56.832 44.5952l-11.4688-21.1968a4.4032 4.4032 0 0 1 1.6896-5.888l21.1968-11.52a4.4032 4.4032 0 0 1 5.888 1.7152l11.52 21.1968a4.4032 4.4032 0 0 1-1.7152 5.888l-21.1968 11.52a4.3264 4.3264 0 0 1-5.888-1.6896zM995.2512 80.5888a76.8 76.8 0 1 0-147.2512 43.648 76.8 76.8 0 0 0 147.2512-43.648zM904.448 125.0816l-9.5744-32.3072a6.0416 6.0416 0 0 1 4.0192-7.5008l32.3072-9.5744a6.0416 6.0416 0 0 1 7.5008 4.0192l9.5744 32.3072a6.0416 6.0416 0 0 1-4.0192 7.5008l-32.3072 9.5744a5.9136 5.9136 0 0 1-7.5008-4.0192z" p-id="20415"></path></svg>